<?xml version="1.0" encoding="UTF-8" standalone="no"?>
<!-- Created with Inkscape (http://www.inkscape.org/) -->

<svg
   xmlns:dc="http://purl.org/dc/elements/1.1/"
   xmlns:cc="http://creativecommons.org/ns#"
   xmlns:rdf="http://www.w3.org/1999/02/22-rdf-syntax-ns#"
   xmlns:svg="http://www.w3.org/2000/svg"
   xmlns="http://www.w3.org/2000/svg"
   xmlns:sodipodi="http://sodipodi.sourceforge.net/DTD/sodipodi-0.dtd"
   xmlns:inkscape="http://www.inkscape.org/namespaces/inkscape"
   width="111.47601mm"
   height="100.00041mm"
   viewBox="0 0 111.47601 100.00041"
   version="1.1"
   id="svg8"
   inkscape:version="0.92.4 (5da689c313, 2019-01-14)"
   sodipodi:docname="simple_c_clip.svg"
   inkscape:export-filename="C:\DEV\portfolio\logos\simple_c_light.png"
   inkscape:export-xdpi="114.04552"
   inkscape:export-ydpi="114.04552">
  <defs
     id="defs2">
    <inkscape:path-effect
       effect="bspline"
       id="path-effect24"
       is_visible="true"
       weight="33.333333"
       steps="2"
       helper_size="0"
       apply_no_weight="true"
       apply_with_weight="true"
       only_selected="false" />
  </defs>
  <sodipodi:namedview
     id="base"
     pagecolor="#ffffff"
     bordercolor="#666666"
     borderopacity="1.0"
     inkscape:pageopacity="0.0"
     inkscape:pageshadow="2"
     inkscape:zoom="1.4"
     inkscape:cx="222.62704"
     inkscape:cy="166.01051"
     inkscape:document-units="mm"
     inkscape:current-layer="layer1"
     showgrid="false"
     inkscape:window-width="1465"
     inkscape:window-height="1051"
     inkscape:window-x="-9"
     inkscape:window-y="0"
     inkscape:window-maximized="0"
     showguides="true"
     inkscape:guide-bbox="true">
    <sodipodi:guide
       position="99.976503,51.53251"
       orientation="1,0"
       id="guide8485"
       inkscape:locked="false" />
    <sodipodi:guide
       position="50.962264,0.069052286"
       orientation="0,1"
       id="guide8487"
       inkscape:locked="false" />
  </sodipodi:namedview>
  <metadata
     id="metadata5">
    <rdf:RDF>
      <cc:Work
         rdf:about="">
        <dc:format>image/svg+xml</dc:format>
        <dc:type
           rdf:resource="http://purl.org/dc/dcmitype/StillImage" />
        <dc:title />
      </cc:Work>
    </rdf:RDF>
  </metadata>
  <g
     inkscape:label="Layer 1"
     inkscape:groupmode="layer"
     id="layer1"
     transform="translate(-42.964818,-107.67727)">
    <g
       id="g8666"
       inkscape:export-xdpi="34.177757"
       inkscape:export-ydpi="34.177757">
      <path
         style="fill:#929292;stroke-width:0.99999994;fill-opacity:1"
         d="M 360.69531,407.20117 A 188.97638,188.97638 0 0 0 222.4668,457.75195 188.97638,188.97638 0 0 0 186.49219,688.30273 188.97638,188.97638 0 0 0 401.88477,778.04492 188.97638,188.97638 0 0 0 540.25,590.1543 l -75.65625,2.32031 a 113.38583,113.38583 45 0 1 -53.55469,99.88281 113.38583,113.38583 45 0 1 -156.08789,-36.73633 113.38583,113.38583 45 0 1 36.73633,-156.08593 113.38583,113.38583 45 0 1 121.76367,1.68945 l 41.50977,-63.32813 a 188.97638,188.97638 0 0 0 -94.26563,-30.69531 z"
         transform="scale(0.26458333)"
         id="path14"
         inkscape:connector-curvature="0" />
      <path
         style="fill:#4d4d4d;stroke-width:0.99999994;fill-opacity:1"
         d="m 354.16992,406.99023 a 188.97638,188.97638 0 0 0 -122.38867,42.62696 188.97638,188.97638 0 0 0 -55.93359,216.375 188.97638,188.97638 0 0 0 189.54101,118.41015 188.97638,188.97638 0 0 0 169.92383,-145.16211 l -73.64844,-17.33398 a 113.38583,113.38583 45 0 1 -50.625,70.45117 113.38583,113.38583 45 0 1 -156.08789,-36.73633 113.38583,113.38583 45 0 1 36.73633,-156.08593 113.38583,113.38583 45 0 1 121.76367,1.68945 l 41.50977,-63.32813 A 188.97638,188.97638 0 0 0 354.16992,406.99023 Z"
         transform="scale(0.26458333)"
         id="path16"
         inkscape:connector-curvature="0" />
      <path
         style="fill:#333333;stroke-width:0.99999994;fill-opacity:1"
         d="M 347.64062,407.00586 A 188.97638,188.97638 0 0 0 241.60742,442.10938 188.97638,188.97638 0 0 0 168.20703,642.48242 188.97638,188.97638 0 0 0 328.35352,783.51562 188.97638,188.97638 0 0 0 517.83984,685.375 L 451.125,649.53711 a 113.38583,113.38583 45 0 1 -40.08594,42.82031 113.38583,113.38583 45 0 1 -156.08789,-36.73633 113.38583,113.38583 45 0 1 36.73633,-156.08593 113.38583,113.38583 45 0 1 121.76367,1.68945 l 41.50977,-63.32813 A 188.97638,188.97638 0 0 0 347.64062,407.00586 Z"
         transform="scale(0.26458333)"
         id="path10"
         inkscape:connector-curvature="0" />
    </g>
    <path
       style="fill:#4d4d4d;fill-opacity:1;stroke-width:0.26458332"
       id="path20"
       sodipodi:type="arc"
       sodipodi:cx="147.44083"
       sodipodi:cy="200.6226"
       sodipodi:rx="7"
       sodipodi:ry="7"
       sodipodi:start="4.0142573"
       sodipodi:end="2.268928"
       d="m 142.94131,195.26029 a 7,7 0 0 1 9.59113,0.55862 7,7 0 0 1 0,9.60739 7,7 0 0 1 -9.59113,0.55862"
       sodipodi:open="true"
       inkscape:export-xdpi="34.177757"
       inkscape:export-ydpi="34.177757" />
  </g>
</svg>
